<?xml version="1.0" encoding="UTF-8"?>
<!DOCTYPE svg PUBLIC "-//W3C//DTD SVG 1.1//EN" "http://www.w3.org/Graphics/SVG/1.1/DTD/svg11.dtd">
<svg xmlns="http://www.w3.org/2000/svg" version="1.1" width="48px" height="48px" style="shape-rendering:geometricPrecision; text-rendering:geometricPrecision; image-rendering:optimizeQuality; fill-rule:evenodd; clip-rule:evenodd" xmlns:xlink="http://www.w3.org/1999/xlink">
<g><path style="opacity:1" fill="#fefefe" d="M -0.5,-0.5 C 15.5,-0.5 31.5,-0.5 47.5,-0.5C 47.5,15.5 47.5,31.5 47.5,47.5C 31.5,47.5 15.5,47.5 -0.5,47.5C -0.5,31.5 -0.5,15.5 -0.5,-0.5 Z"/></g>
<g><path style="opacity:1" fill="#8d8d8d" d="M 13.5,14.5 C 13.1739,23.0168 13.5073,31.3501 14.5,39.5C 14.44,40.0431 14.1067,40.3764 13.5,40.5C 12.1786,31.6755 12.1786,23.0088 13.5,14.5 Z"/></g>
<g><path style="opacity:1" fill="#1f1f1f" d="M 33.5,14.5 C 33.8261,23.0168 33.4927,31.3501 32.5,39.5C 31.8783,38.3734 31.045,37.3734 30,36.5C 28.1649,39.858 25.9982,40.1913 23.5,37.5C 21.0018,40.1913 18.8351,39.858 17,36.5C 15.955,37.3734 15.1217,38.3734 14.5,39.5C 13.5073,31.3501 13.1739,23.0168 13.5,14.5C 17.1067,6.79824 22.7733,4.96491 30.5,9C 32.16,10.4877 33.16,12.321 33.5,14.5 Z"/></g>
<g><path style="opacity:1" fill="#f6f6f6" d="M 16.5,34.5 C 15.5093,28.021 15.176,21.3543 15.5,14.5C 18.0757,8.42101 22.4091,6.92101 28.5,10C 30.0488,11.214 31.2155,12.714 32,14.5C 32.8311,21.5237 32.6644,28.5237 31.5,35.5C 29.6707,34.7176 28.1707,35.3843 27,37.5C 25.9805,36.3128 24.8139,35.3128 23.5,34.5C 21.1316,37.1479 18.7983,37.1479 16.5,34.5 Z"/></g>
<g><path style="opacity:1" fill="#323232" d="M 28.5,13.5 C 30.2726,14.3143 30.7726,15.6476 30,17.5C 28.0692,20.1047 26.2358,20.1047 24.5,17.5C 26.188,16.4787 27.5213,15.1454 28.5,13.5 Z"/></g>
<g><path style="opacity:1" fill="#323232" d="M 17.5,13.5 C 19.1477,14.8098 20.8144,16.1431 22.5,17.5C 20.7642,20.1047 18.9308,20.1047 17,17.5C 16.4209,16.0715 16.5876,14.7382 17.5,13.5 Z"/></g>
<g><path style="opacity:1" fill="#aeaeae" d="M 15.5,14.5 C 15.176,21.3543 15.5093,28.021 16.5,34.5C 16.44,35.0431 16.1067,35.3764 15.5,35.5C 14.1812,28.344 14.1812,21.344 15.5,14.5 Z"/></g>
<g><path style="opacity:1" fill="#848484" d="M 33.5,14.5 C 34.8214,23.0088 34.8214,31.6755 33.5,40.5C 32.8933,40.3764 32.56,40.0431 32.5,39.5C 33.4927,31.3501 33.8261,23.0168 33.5,14.5 Z"/></g>
</svg>
